<?xml version="1.0" standalone="no"?>
<!DOCTYPE svg PUBLIC "-//W3C//DTD SVG 20010904//EN"
 "http://www.w3.org/TR/2001/REC-SVG-20010904/DTD/svg10.dtd">
<svg version="1.0" xmlns="http://www.w3.org/2000/svg"
 width="421.000000pt" height="421.000000pt" viewBox="0 0 421.000000 421.000000"
 preserveAspectRatio="xMidYMid meet">
<metadata>
Created by potrace 1.16, written by Peter Selinger 2001-2019
</metadata>
<g transform="translate(0.000000,421.000000) scale(0.100000,-0.100000)"
fill="#000000" stroke="none">
<path d="M2100 3610 c-11 -11 -53 -70 -93 -132 -93 -142 -343 -522 -544 -828
-1216 -1846 -1139 -1718 -1072 -1774 l31 -26 693 0 c434 0 703 4 720 10 26 10
106 127 638 940 120 184 225 341 232 349 11 11 22 0 68 -70 29 -46 189 -290
355 -542 166 -251 302 -462 302 -467 0 -6 -120 -10 -326 -10 -189 0 -333 -4
-343 -10 -25 -13 -45 -64 -37 -95 4 -14 15 -34 26 -45 19 -19 35 -20 450 -20
l431 0 24 25 c51 50 47 57 -234 485 -143 217 -346 527 -452 688 -105 161 -201
299 -213 307 -29 21 -61 18 -90 -7 -14 -13 -176 -252 -360 -533 -184 -280
-381 -581 -438 -667 l-103 -158 -582 0 -582 0 271 413 c149 226 398 604 552
839 155 236 399 607 543 826 143 219 262 407 263 418 4 39 -1 55 -25 79 -30
31 -77 33 -105 5z"/>
</g>
</svg>
