<?xml version="1.0" standalone="no"?>
<!DOCTYPE svg PUBLIC "-//W3C//DTD SVG 20010904//EN"
 "http://www.w3.org/TR/2001/REC-SVG-20010904/DTD/svg10.dtd">
<svg version="1.0" xmlns="http://www.w3.org/2000/svg"
 width="512.000000pt" height="512.000000pt" viewBox="0 0 512.000000 512.000000"
 preserveAspectRatio="xMidYMid meet">

<g transform="translate(0.000000,512.000000) scale(0.100000,-0.100000)"
fill="#000000" stroke="none">
<path d="M648 4814 c-213 -51 -397 -242 -443 -459 -22 -105 -22 -3485 0 -3590
46 -219 231 -409 447 -460 54 -13 275 -15 1554 -15 1432 0 1492 1 1507 18 23
25 21 58 -3 82 -20 20 -33 20 -1503 20 -1637 0 -1545 -3 -1655 63 -72 43 -144
118 -181 187 -64 120 -61 15 -61 1900 0 1885 -3 1780 61 1900 37 69 109 144
181 187 111 67 -9 63 1913 63 1421 0 1749 -3 1790 -14 156 -41 277 -154 337
-312 l23 -59 0 -1200 0 -1200 -66 -5 c-37 -3 -74 -12 -84 -20 -26 -21 -47 -78
-39 -103 13 -44 166 -297 191 -317 14 -11 39 -20 55 -20 59 0 80 22 172 184
78 138 87 160 82 190 -4 21 -19 45 -37 60 -25 22 -41 26 -89 26 l-59 0 -3
1208 -3 1207 -27 80 c-68 199 -235 354 -430 400 -91 21 -3542 21 -3630 -1z"/>
<path d="M1015 4231 c-170 -48 -299 -177 -361 -361 -18 -53 -19 -110 -19
-1305 0 -1185 1 -1253 18 -1310 53 -170 169 -296 332 -358 l60 -22 1394 -3
c1525 -3 1446 -5 1571 55 67 32 185 148 222 219 60 113 58 53 58 1414 0 1361
2 1301 -58 1414 -15 28 -58 83 -97 122 -76 77 -158 123 -253 143 -37 8 -461
11 -1430 10 -1273 0 -1382 -2 -1437 -18z m623 -1129 c20 -20 382 -1007 382
-1042 0 -52 -60 -78 -94 -42 -9 10 -42 90 -74 178 l-59 159 -193 0 -193 0 -61
-168 c-33 -92 -68 -172 -76 -177 -38 -24 -90 3 -90 46 0 39 367 1037 386 1051
25 18 51 16 72 -5z m692 -2 c19 -19 20 -33 20 -500 l0 -480 170 0 c157 0 172
-2 190 -20 11 -11 20 -29 20 -40 0 -11 -9 -29 -20 -40 -18 -18 -33 -20 -198
-20 -200 0 -230 8 -264 71 -17 31 -18 68 -18 526 l0 492 22 15 c30 21 54 20
78 -4z m770 0 c19 -19 20 -33 20 -500 l0 -480 170 0 c157 0 172 -2 190 -20 11
-11 20 -29 20 -40 0 -11 -9 -29 -20 -40 -18 -18 -33 -20 -198 -20 -200 0 -230
8 -264 71 -17 31 -18 68 -18 526 l0 492 22 15 c30 21 54 20 78 -4z"/>
<path d="M1527 2682 c-37 -103 -67 -190 -67 -194 0 -5 65 -8 144 -8 l143 0
-71 195 c-39 107 -73 195 -76 195 -3 0 -35 -84 -73 -188z"/>
</g>
</svg>
