<?xml version="1.0" standalone="no"?>
<!DOCTYPE svg PUBLIC "-//W3C//DTD SVG 20010904//EN"
 "http://www.w3.org/TR/2001/REC-SVG-20010904/DTD/svg10.dtd">
<svg version="1.0" xmlns="http://www.w3.org/2000/svg"
 width="512.000000pt" height="512.000000pt" viewBox="0 0 512.000000 512.000000"
 preserveAspectRatio="xMidYMid meet">

<g transform="translate(0.000000,512.000000) scale(0.100000,-0.100000)"
fill="#000000" stroke="none">
<path d="M622 4309 c-46 -14 -118 -88 -131 -135 -7 -25 -11 -205 -11 -506 l0
-468 -85 0 c-125 0 -180 -27 -216 -105 -18 -38 -19 -93 -19 -1093 0 -925 2
-1057 15 -1089 21 -50 42 -72 90 -94 38 -18 107 -19 1583 -19 l1543 0 24 25
c25 24 25 26 25 215 0 189 0 191 -25 215 l-24 25 -256 0 -255 0 0 160 0 160
400 0 400 0 0 -375 0 -376 25 -24 24 -25 591 0 591 0 24 25 25 24 0 911 0 911
-25 24 c-23 24 -29 25 -159 25 l-135 0 -3 728 -3 728 -28 42 c-15 23 -46 54
-69 69 l-42 28 -1920 2 c-1207 1 -1933 -2 -1954 -8z m3840 -166 c17 -15 18
-51 18 -720 l0 -703 -375 0 -376 0 -24 -25 c-25 -24 -25 -24 -25 -240 l0 -215
-800 0 -800 0 0 405 c0 342 -2 411 -15 442 -21 50 -42 72 -90 94 -37 17 -81
19 -687 19 l-648 0 0 462 c0 415 2 463 17 480 15 17 88 18 1901 18 1740 0
1887 -1 1904 -17z m-2544 -1985 l2 -878 -800 0 -800 0 0 873 c0 481 3 877 7
880 3 4 362 6 797 5 l791 -3 3 -877z m2882 -158 l0 -560 -480 0 -480 0 0 560
0 560 480 0 480 0 0 -560z m-1120 -80 l0 -160 -800 0 -800 0 0 160 0 160 800
0 800 0 0 -160z m-1440 -480 l0 -160 -80 0 -80 0 0 160 0 160 80 0 80 0 0
-160z m480 0 l0 -160 -160 0 -160 0 0 160 0 160 160 0 160 0 0 -160z m2080
-320 l0 -160 -480 0 -480 0 0 160 0 160 480 0 480 0 0 -160z m-2882 -77 l-3
-78 -795 0 -795 0 -3 78 -3 77 801 0 801 0 -3 -77z m1362 -3 l0 -80 -600 0
-600 0 0 80 0 80 600 0 600 0 0 -80z"/>
<path d="M903 3897 c-88 -88 -103 -108 -103 -135 0 -44 38 -82 82 -82 27 0 47
15 135 103 88 88 103 108 103 135 0 44 -38 82 -82 82 -27 0 -47 -15 -135 -103z"/>
<path d="M1143 3737 c-237 -236 -263 -266 -263 -295 0 -44 38 -82 82 -82 29 0
59 26 295 263 237 236 263 266 263 295 0 44 -38 82 -82 82 -29 0 -59 -26 -295
-263z"/>
<path d="M483 2837 c-70 -70 -83 -88 -83 -116 0 -43 38 -81 81 -81 28 0 46 13
116 83 70 70 83 88 83 116 0 43 -38 81 -81 81 -28 0 -46 -13 -116 -83z"/>
<path d="M743 2617 c-237 -236 -263 -266 -263 -295 0 -44 38 -82 82 -82 29 0
59 26 295 263 237 236 263 266 263 295 0 44 -38 82 -82 82 -29 0 -59 -26 -295
-263z"/>
<path d="M2345 1975 c-16 -15 -25 -36 -25 -55 0 -19 9 -40 25 -55 24 -25 26
-25 215 -25 189 0 191 0 215 25 16 15 25 36 25 55 0 19 -9 40 -25 55 -24 25
-26 25 -215 25 -189 0 -191 0 -215 -25z"/>
<path d="M4265 1175 c-50 -49 -15 -135 55 -135 41 0 80 39 80 80 0 41 -39 80
-80 80 -19 0 -40 -9 -55 -25z"/>
</g>
</svg>
