<?xml version="1.0" standalone="no"?>
<!DOCTYPE svg PUBLIC "-//W3C//DTD SVG 20010904//EN"
 "http://www.w3.org/TR/2001/REC-SVG-20010904/DTD/svg10.dtd">
<svg version="1.0" xmlns="http://www.w3.org/2000/svg"
 width="512.000000pt" height="512.000000pt" viewBox="0 0 512.000000 512.000000"
 preserveAspectRatio="xMidYMid meet">

<g transform="translate(0.000000,512.000000) scale(0.100000,-0.100000)"
fill="#000000" stroke="none">
<path d="M3393 4838 c-11 -13 -28 -38 -39 -56 -10 -17 -26 -35 -36 -38 -39
-12 -78 -55 -78 -86 0 -42 14 -62 63 -92 26 -15 49 -38 57 -56 36 -87 123 -92
170 -9 12 22 40 52 63 66 23 14 47 33 54 42 31 40 2 107 -57 131 -18 8 -41 31
-56 57 -15 24 -34 48 -44 53 -32 17 -75 11 -97 -12z m80 -93 c10 -21 35 -46
62 -63 25 -15 45 -30 45 -33 0 -4 -14 -12 -30 -19 -33 -14 -75 -58 -85 -90 -9
-29 -17 -25 -47 25 -17 27 -42 52 -63 62 -19 9 -35 20 -35 25 0 4 18 17 40 28
26 13 47 34 60 60 11 22 24 40 28 40 5 0 16 -16 25 -35z"/>
<path d="M2933 4558 c-11 -13 -30 -42 -43 -65 -15 -28 -35 -47 -62 -59 -47
-21 -88 -67 -88 -98 0 -13 9 -35 21 -50 l20 -26 -453 0 -454 0 -69 -100 c-39
-56 -125 -180 -192 -276 -68 -97 -123 -182 -123 -189 0 -8 101 -127 225 -265
124 -139 225 -255 225 -259 0 -4 -21 -17 -47 -30 -353 -169 -648 -504 -772
-878 -57 -170 -74 -280 -75 -478 0 -211 15 -308 74 -488 171 -514 590 -888
1131 -1009 90 -20 131 -23 309 -23 178 0 219 3 309 23 542 122 960 495 1131
1011 226 680 -51 1420 -669 1785 -50 29 -104 59 -121 66 -16 7 -30 16 -30 20
0 4 101 121 225 260 124 138 225 257 225 265 0 7 -55 92 -122 189 -68 96 -154
220 -193 276 -56 80 -74 100 -94 100 -22 0 -23 1 -8 18 8 9 19 29 22 45 10 38
-14 71 -79 107 -36 21 -58 41 -67 62 -7 17 -23 44 -37 59 -31 37 -88 40 -119
7z m91 -107 c20 -38 40 -57 83 -81 l56 -32 -51 -30 c-53 -30 -73 -51 -106
-110 l-18 -33 -24 47 c-24 48 -39 62 -108 103 l-40 23 56 31 c42 24 61 43 82
81 15 28 31 50 35 50 4 0 20 -22 35 -49z m-124 -291 c38 -91 142 -91 180 0 12
30 15 31 68 28 54 -3 55 -3 98 -64 l43 -60 -186 -145 c-103 -79 -194 -150
-204 -156 -15 -11 -34 10 -164 180 -81 105 -153 196 -161 200 -8 4 -20 4 -28
0 -8 -4 -80 -95 -161 -201 -99 -129 -151 -189 -159 -183 -6 4 -96 75 -201 155
-104 81 -190 149 -190 151 0 2 19 31 43 64 l43 61 483 0 484 0 12 -30z m-940
-293 c85 -66 159 -123 164 -128 5 -5 -109 -8 -253 -8 -170 0 -261 3 -259 9 10
31 175 257 183 252 6 -3 80 -59 165 -125z m1547 -124 c4 -10 -53 -12 -251 -12
-141 0 -256 3 -256 7 1 4 76 64 167 134 l166 127 84 -122 c47 -67 88 -128 90
-134z m-987 117 l0 -130 -95 0 c-52 0 -95 3 -95 7 0 6 182 251 188 252 1 1 2
-57 2 -129z m270 -122 c0 -5 -43 -8 -95 -8 l-95 0 0 131 0 131 95 -123 c52
-68 95 -127 95 -131z m-760 -385 c101 -170 192 -316 202 -325 24 -21 58 -8 58
22 0 11 -79 151 -175 312 l-174 293 131 3 c72 1 135 -1 139 -5 4 -4 66 -222
137 -483 129 -470 130 -474 99 -440 -18 20 -129 143 -247 275 -401 446 -567
633 -574 644 -5 8 25 11 107 11 l115 0 182 -307z m490 -2 c0 -268 2 -312 16
-325 19 -20 29 -20 48 0 14 13 16 57 16 325 l0 309 110 0 c75 0 110 -4 110
-11 0 -22 -254 -939 -260 -939 -6 0 -260 917 -260 939 0 7 35 11 110 11 l110
0 0 -309z m657 302 c-2 -5 -81 -137 -176 -295 -94 -158 -171 -296 -171 -307 0
-31 34 -45 58 -23 10 9 101 155 202 325 l182 307 115 0 c82 0 112 -3 107 -11
-7 -11 -173 -198 -574 -644 -118 -132 -229 -255 -247 -275 -31 -34 -30 -30 97
434 71 258 131 475 134 482 4 11 36 14 141 14 75 0 134 -3 132 -7z m-1098
-632 c39 -44 71 -82 71 -85 0 -3 -6 -6 -14 -6 -30 0 -239 -113 -314 -170 -145
-109 -286 -277 -364 -435 -14 -27 -39 -88 -56 -135 -54 -153 -61 -210 -27
-224 27 -10 52 29 79 128 65 239 215 456 420 608 88 66 270 159 313 162 25 1
50 -23 192 -181 95 -107 171 -183 181 -183 10 0 86 76 181 183 137 153 168
182 190 181 38 -2 184 -73 273 -133 225 -152 401 -400 473 -666 25 -92 27
-115 27 -290 0 -175 -2 -198 -27 -289 -15 -54 -51 -149 -80 -210 -317 -657
-1149 -859 -1732 -421 -76 58 -95 64 -115 40 -18 -22 -4 -46 53 -90 345 -267
797 -333 1203 -176 165 64 334 179 454 309 559 606 384 1566 -353 1937 -60 30
-115 55 -123 55 -8 0 -14 3 -14 6 0 11 143 164 153 164 20 0 174 -83 253 -136
146 -98 306 -263 406 -420 80 -125 159 -324 195 -494 14 -66 18 -128 18 -280
-1 -175 -4 -207 -27 -306 -138 -583 -583 -1005 -1173 -1111 -56 -10 -144 -16
-235 -16 -234 0 -421 43 -625 142 -403 197 -679 544 -783 985 -23 99 -26 131
-27 306 0 217 10 287 70 467 118 355 375 652 710 822 44 22 85 41 91 41 6 0
43 -36 83 -79z"/>
<path d="M1342 1778 c-16 -16 -15 -83 2 -191 16 -93 27 -117 57 -117 31 0 38
29 23 105 -7 39 -13 94 -14 123 0 29 -5 62 -10 73 -12 21 -40 25 -58 7z"/>
<path d="M1455 1297 c-25 -19 -17 -44 45 -147 61 -102 88 -132 114 -128 42 7
42 33 0 95 -23 32 -56 85 -74 118 -44 78 -53 85 -85 62z"/>
</g>
</svg>
