<?xml version="1.0" standalone="no"?>
<!DOCTYPE svg PUBLIC "-//W3C//DTD SVG 20010904//EN"
 "http://www.w3.org/TR/2001/REC-SVG-20010904/DTD/svg10.dtd">
<svg version="1.0" xmlns="http://www.w3.org/2000/svg"
 width="512.000000pt" height="512.000000pt" viewBox="0 0 512.000000 512.000000"
 preserveAspectRatio="xMidYMid meet">

<g transform="translate(0.000000,512.000000) scale(0.100000,-0.100000)"
fill="#000000" stroke="none">
<path d="M930 4675 c-179 -67 -333 -129 -342 -136 -20 -16 -579 -1369 -586
-1416 -8 -64 7 -71 381 -152 l337 -74 0 -224 0 -224 25 -24 c32 -33 78 -33
110 0 l25 24 0 591 0 591 -25 24 c-15 16 -36 25 -55 25 -19 0 -40 -9 -55 -25
l-25 -24 0 -286 c0 -157 -1 -285 -2 -285 -2 0 -120 27 -263 59 -196 44 -259
62 -257 72 4 18 491 1202 501 1217 4 6 119 54 256 105 l250 94 13 -46 c76
-267 242 -447 487 -528 69 -23 98 -26 210 -27 110 -1 142 3 205 23 137 43 190
81 190 137 0 22 -55 74 -78 74 -11 0 -48 -13 -83 -29 -276 -124 -600 -8 -728
262 -21 45 -41 93 -44 106 -5 20 -2 22 16 18 295 -65 267 -61 527 -61 229 0
253 1 370 27 69 15 135 30 148 33 16 5 22 2 22 -9 0 -31 -42 -128 -81 -186
-45 -68 -49 -102 -14 -136 37 -38 80 -33 121 12 44 48 109 181 130 265 l17 67
46 -18 c25 -10 139 -53 253 -96 114 -42 209 -82 211 -89 3 -6 115 -279 250
-606 135 -328 247 -602 249 -609 2 -10 -66 -29 -257 -72 -143 -32 -261 -59
-262 -59 -2 0 -3 128 -3 285 l0 286 -25 24 c-32 33 -78 33 -110 0 l-25 -24 0
-1256 0 -1255 -695 0 -696 0 -24 -25 c-16 -15 -25 -36 -25 -55 0 -19 9 -40 25
-55 l24 -25 751 0 751 0 24 25 25 24 0 944 0 943 338 74 c358 79 382 88 382
143 0 26 -565 1405 -583 1424 -14 15 -672 263 -697 263 -9 0 -55 -13 -103 -29
-336 -114 -746 -112 -1086 4 -41 14 -84 25 -95 24 -12 -1 -167 -56 -346 -124z"/>
<path d="M3785 4135 c-30 -29 -33 -74 -7 -103 10 -13 133 -65 329 -137 l311
-117 20 -46 c54 -127 481 -1169 484 -1181 2 -10 -61 -28 -257 -72 -143 -32
-261 -59 -262 -59 -2 0 -3 128 -3 285 l0 286 -25 24 c-15 16 -36 25 -55 25
-19 0 -40 -9 -55 -25 l-25 -24 0 -1256 0 -1255 -1040 0 -1040 0 0 135 c0 131
-1 137 -25 160 -32 33 -78 33 -110 0 -25 -24 -25 -26 -25 -215 0 -189 0 -191
25 -215 l24 -25 1151 0 1151 0 24 25 25 24 0 944 0 943 338 74 c358 79 382 88
382 143 0 26 -565 1405 -583 1424 -17 17 -676 263 -705 263 -12 0 -34 -11 -47
-25z"/>
<path d="M514 2066 c-144 -96 -264 -182 -268 -191 -3 -9 -6 -352 -6 -761 l0
-745 25 -24 24 -25 511 0 511 0 24 25 25 24 0 746 c0 439 -4 753 -9 764 -15
28 -523 361 -551 361 -16 0 -123 -65 -286 -174z m488 -137 l198 -132 0 -658 0
-659 -400 0 -400 0 0 658 0 659 198 131 c108 73 199 132 202 132 2 0 93 -59
202 -131z"/>
<path d="M745 1815 c-16 -15 -25 -36 -25 -55 0 -19 9 -40 25 -55 15 -16 36
-25 55 -25 19 0 40 9 55 25 16 15 25 36 25 55 0 19 -9 40 -25 55 -15 16 -36
25 -55 25 -19 0 -40 -9 -55 -25z"/>
</g>
</svg>
