<?xml version="1.0" standalone="no"?>
<!DOCTYPE svg PUBLIC "-//W3C//DTD SVG 20010904//EN"
 "http://www.w3.org/TR/2001/REC-SVG-20010904/DTD/svg10.dtd">
<svg version="1.0" xmlns="http://www.w3.org/2000/svg"
 width="512.000000pt" height="512.000000pt" viewBox="0 0 512.000000 512.000000"
 preserveAspectRatio="xMidYMid meet">

<g transform="translate(0.000000,512.000000) scale(0.100000,-0.100000)"
fill="#000000" stroke="none">
<path d="M2932 4997 c-47 -15 -117 -80 -144 -135 -23 -46 -23 -53 -26 -424
l-4 -376 -73 -61 c-41 -33 -98 -90 -127 -126 l-53 -66 -50 8 c-27 4 -108 8
-180 7 -112 -1 -141 -5 -211 -28 -134 -43 -246 -128 -369 -278 -23 -28 -139
-97 -515 -304 -267 -146 -497 -275 -511 -285 -14 -10 -36 -37 -48 -61 -26 -52
-461 -1828 -461 -1884 0 -22 10 -60 23 -84 46 -91 17 -81 832 -281 452 -110
759 -181 788 -181 30 1 63 9 89 24 85 47 77 20 319 1008 145 592 222 923 222
957 0 35 -7 64 -23 90 -12 21 -157 235 -321 476 -165 240 -299 444 -299 453 0
8 37 52 83 97 133 133 281 187 471 173 49 -4 93 -9 97 -12 4 -2 2 -19 -6 -37
-30 -71 -48 -199 -42 -292 14 -210 104 -390 268 -530 72 -63 69 -48 69 -374
l0 -295 -207 -550 c-226 -602 -228 -608 -185 -693 12 -23 36 -53 54 -66 57
-43 1149 -738 1175 -748 50 -19 124 -11 177 20 104 58 1122 713 1150 739 38
36 66 98 66 149 0 31 -56 192 -210 603 l-210 560 0 274 c0 170 4 285 11 304 6
17 39 56 74 87 169 148 256 340 256 565 0 256 -124 489 -328 618 l-43 27 0
366 c0 401 -2 421 -60 491 -93 113 -292 117 -384 7 -64 -75 -66 -86 -66 -395
0 -231 -3 -289 -16 -328 -22 -63 -98 -145 -171 -181 -54 -28 -65 -30 -173 -30
-110 0 -118 1 -182 33 -70 34 -122 85 -155 151 -16 32 -19 73 -23 341 -5 291
-6 307 -27 346 -29 55 -78 103 -128 125 -45 21 -139 24 -193 6z m151 -112 c18
-8 43 -32 57 -52 l25 -36 5 -306 5 -306 29 -60 c64 -129 204 -224 364 -247
158 -23 320 31 426 141 31 33 69 86 84 118 l27 58 5 305 c5 299 5 306 28 338
61 85 184 80 237 -9 19 -32 20 -57 25 -433 l5 -400 59 -34 c95 -55 186 -154
235 -253 59 -121 74 -192 69 -319 -11 -239 -136 -429 -353 -536 -125 -61 -186
-75 -358 -83 -131 -5 -150 -8 -163 -25 -37 -51 0 -88 91 -94 115 -8 324 28
427 72 16 7 17 -13 20 -286 l3 -293 208 -551 c114 -303 207 -561 207 -573 0
-11 -12 -34 -28 -51 -43 -47 -1151 -750 -1182 -750 -30 0 -60 19 -710 433
-245 156 -457 295 -473 310 -18 18 -27 36 -27 58 0 18 93 280 207 583 l208
551 3 287 3 287 49 -19 c85 -34 209 -54 336 -54 134 -1 154 6 154 55 0 47 -28
56 -185 62 -160 6 -222 20 -345 79 -70 33 -101 56 -170 127 -93 93 -136 165
-167 282 -23 87 -22 235 1 314 42 142 143 279 272 371 36 25 69 54 74 64 6 11
10 171 10 402 0 365 1 385 20 416 40 65 117 89 183 57z m-1063 -1990 c217
-320 296 -442 298 -467 1 -18 -96 -434 -218 -933 -198 -810 -223 -902 -246
-922 -14 -13 -37 -23 -52 -23 -51 0 -1466 350 -1492 369 -14 10 -28 31 -33 47
-6 23 41 229 212 929 121 495 226 910 233 923 9 16 156 102 428 253 228 125
418 229 421 229 3 0 -9 -39 -27 -87 -17 -49 -43 -137 -57 -198 -23 -105 -25
-110 -53 -116 -81 -18 -158 -80 -194 -156 -25 -53 -29 -137 -9 -202 16 -54 86
-133 142 -160 132 -63 287 -13 359 116 52 93 48 191 -12 286 -25 40 -94 97
-134 110 -24 8 107 438 132 437 4 -1 140 -196 302 -435z m-580 -190 c0 -67 2
-76 24 -90 17 -11 30 -13 48 -6 30 11 38 28 39 84 1 23 4 53 8 67 l7 25 36
-36 c45 -44 63 -103 48 -159 -13 -48 -50 -93 -90 -110 -41 -17 -130 -8 -163
16 -60 44 -85 141 -52 203 15 30 70 81 86 81 5 0 9 -34 9 -75z"/>
<path d="M4344 1495 c-16 -24 -14 -31 45 -188 33 -90 61 -168 61 -174 0 -5
-186 -128 -412 -273 -227 -145 -424 -273 -438 -286 -20 -20 -23 -28 -14 -51 5
-16 21 -32 36 -37 24 -8 57 10 345 194 175 112 382 244 461 294 101 64 144 98
149 114 6 24 -112 359 -143 410 -20 31 -68 30 -90 -3z"/>
<path d="M748 1916 c-20 -10 -33 -53 -115 -386 -51 -206 -93 -387 -93 -402 0
-18 8 -33 23 -42 12 -8 265 -73 561 -145 504 -122 541 -130 563 -116 12 9 23
18 23 22 0 3 41 172 90 375 50 202 90 379 90 392 0 13 -7 29 -14 36 -8 6 -226
63 -483 126 -257 62 -503 122 -545 133 -61 14 -82 16 -100 7z m544 -232 c260
-63 473 -116 474 -117 2 -2 -148 -620 -151 -625 -3 -3 -945 224 -950 230 -3 3
148 628 152 628 1 0 214 -52 475 -116z"/>
</g>
</svg>
